# xmcd
#
# Track frame offsets:
#	150
#	17893
#	31748
#	49508
#	60414
#	80356
#	93533
#	106757
#	121510
#	136792
#	152169
#	166023
#	180678
#	197358
#	212942
#	229055
#	229881
#	230694
#	231579
#	232787
#	233699
#	234581
#	235416
#
# Disc length: 3145 seconds
#
# Revision: 0
# Processed by: cddbd v1.5.2PL0 Copyright (c) Steve Scherf et al.
# Submitted via: audiograbber 1.83.01
#
DISCID=170c4717
DTITLE=Various Artist - CDX 599
DYEAR=2014
DGENRE=Country
TTITLE0=Ben Rue - I Can't Wait Be My Wife (Radio Edit)
TTITLE1=Dean Alexander - Live A Little
TTITLE2=Brett Eldredge - Mean To Me
TTITLE3=Dylan Scott - Mmm Mmm Mmm
TTITLE4=Luke Bryan - Roller Coaster
TTITLE5=Miranda Lambert w. Carrie Underwood - Somethin' Bad
TTITLE6=Kristian Bush - Trailer Hitch
TTITLE7=American Young - Wasn't Gonna Drink Tonight
TTITLE8=The Stickers - Country Proud
TTITLE9=Miss Jeanie - Fool Chain
TTITLE10=Caitlin - Black Cat Summer
TTITLE11=Eileen Carey - Bottle Your Crazy Up
TTITLE12=Coty James - Cowboy Casanova
TTITLE13=Lucas Hoge - Flip Flops
TTITLE14=Skylar Elise - You'll Never Understand
TTITLE15=Jody Lynn - Home Town Country (liner)
TTITLE16=Jody Lynn - Kickin' Country (liner)
TTITLE17=Jody Lynn - More of the Country You Love (liner)
TTITLE18=Jody Lynn - My New Single (liner)
TTITLE19=Jody Lynn - Super Greatest Hits (liner)
TTITLE20=Jody Lynn - The Best In Country Music (liner)
TTITLE21=Jody Lynn - Today's Best Country (liner)
TTITLE22=Jody Lynn - Today's Hot Country Music (liner)
EXTD=
EXTT0=
EXTT1=
EXTT2=
EXTT3=
EXTT4=
EXTT5=
EXTT6=
EXTT7=
EXTT8=
EXTT9=
EXTT10=
EXTT11=
EXTT12=
EXTT13=
EXTT14=
EXTT15=
EXTT16=
EXTT17=
EXTT18=
EXTT19=
EXTT20=
EXTT21=
EXTT22=
PLAYORDER=
